<svg width="1630" height="1629" xmlns="http://www.w3.org/2000/svg" xmlns:xlink="http://www.w3.org/1999/xlink" xml:space="preserve" overflow="hidden"><defs><filter id="fx0" x="-10%" y="-10%" width="120%" height="120%" filterUnits="userSpaceOnUse" primitiveUnits="userSpaceOnUse"><feComponentTransfer color-interpolation-filters="sRGB"><feFuncR type="discrete" tableValues="0 0"/><feFuncG type="discrete" tableValues="0 0"/><feFuncB type="discrete" tableValues="0 0"/><feFuncA type="linear" slope="0.4" intercept="0"/></feComponentTransfer><feGaussianBlur stdDeviation="6.11111 6.11111"/></filter><clipPath id="clip1"><rect x="1375" y="433" width="1630" height="1629"/></clipPath><clipPath id="clip2"><rect x="-3" y="-3" width="1638" height="1638"/></clipPath><clipPath id="clip3"><rect x="0" y="0" width="1632" height="1631"/></clipPath><linearGradient x1="2995.5" y1="441.5" x2="1404.5" y2="2033.5" gradientUnits="userSpaceOnUse" spreadMethod="reflect" id="fill4"><stop offset="0" stop-color="#18C7E2"/><stop offset="0.00555556" stop-color="#18C6E1"/><stop offset="0.0111111" stop-color="#19C6E1"/><stop offset="0.0166667" stop-color="#19C6E1"/><stop offset="0.0222222" stop-color="#1AC6E1"/><stop offset="0.0277778" stop-color="#1BC6E1"/><stop offset="0.0333333" stop-color="#1BC6E1"/><stop offset="0.0388889" stop-color="#1CC6E1"/><stop offset="0.0444444" stop-color="#1CC6E1"/><stop offset="0.05" stop-color="#1DC6E1"/><stop offset="0.0555556" stop-color="#1DC6E1"/><stop offset="0.0611111" stop-color="#1EC6E1"/><stop offset="0.0666667" stop-color="#1FC5E1"/><stop offset="0.0722222" stop-color="#1FC5E1"/><stop offset="0.0777778" stop-color="#20C5E1"/><stop offset="0.0833333" stop-color="#20C5E1"/><stop offset="0.0888889" stop-color="#21C5E1"/><stop offset="0.0944444" stop-color="#22C4E1"/><stop offset="0.1" stop-color="#22C4E1"/><stop offset="0.105556" stop-color="#23C4E1"/><stop offset="0.111111" stop-color="#23C4E1"/><stop offset="0.116667" stop-color="#24C3E1"/><stop offset="0.122222" stop-color="#24C3E1"/><stop offset="0.127778" stop-color="#25C3E1"/><stop offset="0.133333" stop-color="#25C2E1"/><stop offset="0.138889" stop-color="#26C2E1"/><stop offset="0.144444" stop-color="#26C2E1"/><stop offset="0.15" stop-color="#27C1E1"/><stop offset="0.155556" stop-color="#28C1E1"/><stop offset="0.161111" stop-color="#28C1E1"/><stop offset="0.166667" stop-color="#29C0E1"/><stop offset="0.172222" stop-color="#29C0E1"/><stop offset="0.177778" stop-color="#2ABFE0"/><stop offset="0.183333" stop-color="#2ABFE0"/><stop offset="0.188889" stop-color="#2BBFE0"/><stop offset="0.194444" stop-color="#2BBEE0"/><stop offset="0.2" stop-color="#2CBEE0"/><stop offset="0.205556" stop-color="#2CBDE0"/><stop offset="0.211111" stop-color="#2DBDE0"/><stop offset="0.216667" stop-color="#2DBCE0"/><stop offset="0.222222" stop-color="#2EBCE0"/><stop offset="0.227778" stop-color="#2EBBE0"/><stop offset="0.233333" stop-color="#2FBBE0"/><stop offset="0.238889" stop-color="#2FBAE0"/><stop offset="0.244444" stop-color="#30BAE0"/><stop offset="0.25" stop-color="#30B9E0"/><stop offset="0.255556" stop-color="#31B8DF"/><stop offset="0.261111" stop-color="#31B8DF"/><stop offset="0.266667" stop-color="#32B7DF"/><stop offset="0.272222" stop-color="#32B7DF"/><stop offset="0.277778" stop-color="#32B6DF"/><stop offset="0.283333" stop-color="#33B5DF"/><stop offset="0.288889" stop-color="#33B5DF"/><stop offset="0.294444" stop-color="#34B4DF"/><stop offset="0.3" stop-color="#34B4DF"/><stop offset="0.305556" stop-color="#35B3DF"/><stop offset="0.311111" stop-color="#35B2DF"/><stop offset="0.316667" stop-color="#36B2DE"/><stop offset="0.322222" stop-color="#36B1DE"/><stop offset="0.327778" stop-color="#36B0DE"/><stop offset="0.333333" stop-color="#37AFDE"/><stop offset="0.338889" stop-color="#37AFDE"/><stop offset="0.344444" stop-color="#38AEDE"/><stop offset="0.35" stop-color="#38ADDE"/><stop offset="0.355556" stop-color="#39ACDE"/><stop offset="0.361111" stop-color="#39ACDE"/><stop offset="0.366667" stop-color="#39ABDE"/><stop offset="0.372222" stop-color="#3AAADD"/><stop offset="0.377778" stop-color="#3AA9DD"/><stop offset="0.383333" stop-color="#3BA9DD"/><stop offset="0.388889" stop-color="#3BA8DD"/><stop offset="0.394444" stop-color="#3BA7DD"/><stop offset="0.4" stop-color="#3CA6DD"/><stop offset="0.405556" stop-color="#3CA5DD"/><stop offset="0.411111" stop-color="#3DA4DD"/><stop offset="0.416667" stop-color="#3DA3DC"/><stop offset="0.422222" stop-color="#3DA3DC"/><stop offset="0.427778" stop-color="#3EA2DC"/><stop offset="0.433333" stop-color="#3EA1DC"/><stop offset="0.438889" stop-color="#3FA0DC"/><stop offset="0.444444" stop-color="#3F9FDC"/><stop offset="0.45" stop-color="#3F9EDC"/><stop offset="0.455556" stop-color="#409DDC"/><stop offset="0.461111" stop-color="#409CDB"/><stop offset="0.466667" stop-color="#409BDB"/><stop offset="0.472222" stop-color="#419ADB"/><stop offset="0.477778" stop-color="#4199DB"/><stop offset="0.483333" stop-color="#4198DB"/><stop offset="0.488889" stop-color="#4297DB"/><stop offset="0.494444" stop-color="#4296DB"/><stop offset="0.5" stop-color="#4295DA"/><stop offset="0.505556" stop-color="#4394DA"/><stop offset="0.511111" stop-color="#4393DA"/><stop offset="0.516667" stop-color="#4392DA"/><stop offset="0.522222" stop-color="#4491DA"/><stop offset="0.527778" stop-color="#4490DA"/><stop offset="0.533333" stop-color="#448FD9"/><stop offset="0.538889" stop-color="#458ED9"/><stop offset="0.544444" stop-color="#458DD9"/><stop offset="0.55" stop-color="#458BD9"/><stop offset="0.555556" stop-color="#468AD9"/><stop offset="0.561111" stop-color="#4689D9"/><stop offset="0.566667" stop-color="#4688D9"/><stop offset="0.572222" stop-color="#4687D8"/><stop offset="0.577778" stop-color="#4786D8"/><stop offset="0.583333" stop-color="#4785D8"/><stop offset="0.588889" stop-color="#4783D8"/><stop offset="0.594444" stop-color="#4882D8"/><stop offset="0.6" stop-color="#4881D8"/><stop offset="0.605556" stop-color="#4880D7"/><stop offset="0.611111" stop-color="#487FD7"/><stop offset="0.616667" stop-color="#497DD7"/><stop offset="0.622222" stop-color="#497CD7"/><stop offset="0.627778" stop-color="#497BD7"/><stop offset="0.633333" stop-color="#4A7AD6"/><stop offset="0.638889" stop-color="#4A78D6"/><stop offset="0.644444" stop-color="#4A77D6"/><stop offset="0.65" stop-color="#4A76D6"/><stop offset="0.655556" stop-color="#4B74D6"/><stop offset="0.661111" stop-color="#4B73D6"/><stop offset="0.666667" stop-color="#4B72D5"/><stop offset="0.672222" stop-color="#4B71D5"/><stop offset="0.677778" stop-color="#4B6FD5"/><stop offset="0.683333" stop-color="#4C6ED5"/><stop offset="0.688889" stop-color="#4C6DD5"/><stop offset="0.694444" stop-color="#4C6BD4"/><stop offset="0.7" stop-color="#4C6AD4"/><stop offset="0.705556" stop-color="#4D68D4"/><stop offset="0.711111" stop-color="#4D67D4"/><stop offset="0.716667" stop-color="#4D66D4"/><stop offset="0.722222" stop-color="#4D64D3"/><stop offset="0.727778" stop-color="#4D63D3"/><stop offset="0.733333" stop-color="#4E61D3"/><stop offset="0.738889" stop-color="#4E60D3"/><stop offset="0.744444" stop-color="#4E5ED3"/><stop offset="0.75" stop-color="#4E5DD2"/><stop offset="0.755556" stop-color="#4E5BD2"/><stop offset="0.761111" stop-color="#4E5AD2"/><stop offset="0.766667" stop-color="#4F59D2"/><stop offset="0.772222" stop-color="#4F57D1"/><stop offset="0.777778" stop-color="#4F56D1"/><stop offset="0.783333" stop-color="#4F54D1"/><stop offset="0.788889" stop-color="#4F52D1"/><stop offset="0.794444" stop-color="#4F51D1"/><stop offset="0.8" stop-color="#504FD0"/><stop offset="0.805556" stop-color="#504ED0"/><stop offset="0.811111" stop-color="#504CD0"/><stop offset="0.816667" stop-color="#504BD0"/><stop offset="0.822222" stop-color="#5049CF"/><stop offset="0.827778" stop-color="#5048CF"/><stop offset="0.833333" stop-color="#5046CF"/><stop offset="0.838889" stop-color="#5144CF"/><stop offset="0.844444" stop-color="#5143CF"/><stop offset="0.85" stop-color="#5141CE"/><stop offset="0.855556" stop-color="#513FCE"/><stop offset="0.861111" stop-color="#513ECE"/><stop offset="0.866667" stop-color="#513CCE"/><stop offset="0.872222" stop-color="#513ACD"/><stop offset="0.877778" stop-color="#5139CD"/><stop offset="0.883333" stop-color="#5137CD"/><stop offset="0.888889" stop-color="#5235CD"/><stop offset="0.894444" stop-color="#5234CC"/><stop offset="0.9" stop-color="#5232CC"/><stop offset="0.905556" stop-color="#5230CC"/><stop offset="0.911111" stop-color="#522ECC"/><stop offset="0.916667" stop-color="#522DCB"/><stop offset="0.922222" stop-color="#522BCB"/><stop offset="0.927778" stop-color="#5229CB"/><stop offset="0.933333" stop-color="#5227CB"/><stop offset="0.938889" stop-color="#5226CA"/><stop offset="0.944444" stop-color="#5224CA"/><stop offset="0.95" stop-color="#5222CA"/><stop offset="0.955556" stop-color="#5220CA"/><stop offset="0.961111" stop-color="#521EC9"/><stop offset="0.966667" stop-color="#521DC9"/><stop offset="0.972222" stop-color="#521BC9"/><stop offset="0.977778" stop-color="#5219C9"/><stop offset="0.983333" stop-color="#5217C8"/><stop offset="0.988889" stop-color="#5215C8"/><stop offset="0.994444" stop-color="#5213C8"/><stop offset="1" stop-color="#5312C8"/></linearGradient></defs><g clip-path="url(#clip1)" transform="translate(-1375 -433)"><g clip-path="url(#clip2)" filter="url(#fx0)" transform="translate(1374 432)"><g clip-path="url(#clip3)"><path d="M306.616 19.7228C148.476 19.7228 20.2771 147.841 20.2771 305.882L20.2771 838.425C20.2771 996.464 148.476 1124.58 306.616 1124.58L825.431 1124.58C854.308 1226.61 948.166 1301.36 1059.5 1301.36 1193.83 1301.36 1302.72 1192.54 1302.72 1058.29 1302.72 924.047 1193.83 815.223 1059.5 815.223 940.272 815.223 841.082 900.956 820.289 1014.1L306.616 1014.1C209.535 1014.1 130.833 935.445 130.833 838.425L130.833 305.882C130.833 208.862 209.535 130.209 306.616 130.209L839.494 130.209C936.575 130.209 1015.28 208.862 1015.28 305.882L1015.28 318.035C1015.28 348.547 1040.02 373.278 1070.56 373.278 1101.09 373.278 1125.83 348.547 1125.83 318.035L1125.83 305.882C1125.83 147.841 997.633 19.7228 839.494 19.7228L306.616 19.7228ZM506.722 1334.51 506.722 1312.41C506.722 1281.9 531.469 1257.17 561.999 1257.17 592.531 1257.17 617.277 1281.9 617.277 1312.41L617.277 1334.51C617.277 1426.04 691.522 1500.24 783.111 1500.24L1335.89 1500.24C1427.48 1500.24 1501.72 1426.04 1501.72 1334.51L1501.72 782.077C1501.72 690.546 1427.48 616.348 1335.89 616.348L812.266 616.348C791.473 729.49 692.283 815.223 573.055 815.223 438.726 815.223 329.833 706.398 329.833 572.153 329.833 437.908 438.726 329.084 573.055 329.084 684.389 329.084 778.246 403.839 807.123 505.862L1335.89 505.862C1488.54 505.862 1612.28 629.527 1612.28 782.077L1612.28 1334.51C1612.28 1487.06 1488.54 1610.72 1335.89 1610.72L783.111 1610.72C630.465 1610.72 506.722 1487.06 506.722 1334.51Z" fill="#FF0000" fill-rule="evenodd"/></g></g><path d="M1690.34 442C1532.2 442 1404 570.118 1404 728.159L1404 1260.7C1404 1418.74 1532.2 1546.86 1690.34 1546.86L2209.15 1546.86C2238.03 1648.88 2331.89 1723.64 2443.22 1723.64 2577.55 1723.64 2686.44 1614.81 2686.44 1480.57 2686.44 1346.32 2577.55 1237.5 2443.22 1237.5 2324 1237.5 2224.8 1323.23 2204.01 1436.38L1690.34 1436.38C1593.26 1436.38 1514.56 1357.72 1514.56 1260.7L1514.56 728.159C1514.56 631.139 1593.26 552.486 1690.34 552.486L2223.22 552.486C2320.3 552.486 2399 631.139 2399 728.159L2399 740.313C2399 770.824 2423.75 795.556 2454.28 795.556 2484.81 795.556 2509.56 770.824 2509.56 740.313L2509.56 728.159C2509.56 570.118 2381.36 442 2223.22 442L1690.34 442ZM1890.44 1756.78 1890.44 1734.69C1890.44 1704.18 1915.19 1679.44 1945.72 1679.44 1976.25 1679.44 2001 1704.18 2001 1734.69L2001 1756.78C2001 1848.32 2075.24 1922.51 2166.83 1922.51L2719.61 1922.51C2811.2 1922.51 2885.44 1848.32 2885.44 1756.78L2885.44 1204.35C2885.44 1112.82 2811.2 1038.63 2719.61 1038.63L2195.99 1038.63C2175.2 1151.77 2076.01 1237.5 1956.78 1237.5 1822.45 1237.5 1713.56 1128.68 1713.56 994.431 1713.56 860.186 1822.45 751.361 1956.78 751.361 2068.11 751.361 2161.97 826.116 2190.85 928.139L2719.61 928.139C2872.26 928.139 2996 1051.8 2996 1204.35L2996 1756.78C2996 1909.34 2872.26 2033 2719.61 2033L2166.83 2033C2014.19 2033 1890.44 1909.34 1890.44 1756.78Z" fill="url(#fill4)" fill-rule="evenodd"/></g></svg>